<svg width="30" height="30" viewBox="0 0 30 30" fill="none" xmlns="http://www.w3.org/2000/svg">
<path d="M26.2 0.600098H3.80001C2.04001 0.600098 0.600006 2.0401 0.600006 3.8001V26.2001C0.600006 27.9617 2.04001 29.4001 3.80001 29.4001H15V18.2001H11.8V14.2401H15V10.9601C15 7.4977 16.9392 5.0657 21.0256 5.0657L23.9104 5.0689V9.2369H21.9952C20.4048 9.2369 19.8 10.4305 19.8 11.5377V14.2417H23.9088L23 18.2001H19.8V29.4001H26.2C27.96 29.4001 29.4 27.9617 29.4 26.2001V3.8001C29.4 2.0401 27.96 0.600098 26.2 0.600098Z" fill="#215DCC"/>
</svg>
