<svg>

<symbol id="facebook" width="30" height="30" viewBox="0 0 30 30" fill="none" xmlns="http://www.w3.org/2000/svg">
<path d="M26.2 0.600098H3.80001C2.04001 0.600098 0.600006 2.0401 0.600006 3.8001V26.2001C0.600006 27.9617 2.04001 29.4001 3.80001 29.4001H15V18.2001H11.8V14.2401H15V10.9601C15 7.4977 16.9392 5.0657 21.0256 5.0657L23.9104 5.0689V9.2369H21.9952C20.4048 9.2369 19.8 10.4305 19.8 11.5377V14.2417H23.9088L23 18.2001H19.8V29.4001H26.2C27.96 29.4001 29.4 27.9617 29.4 26.2001V3.8001C29.4 2.0401 27.96 0.600098 26.2 0.600098Z" fill="#215DCC"/>
</symbol>

<symbol id="telegram" width="32" height="32" viewBox="0 0 32 32" fill="none" xmlns="http://www.w3.org/2000/svg">
<g clip-path="url(#clip0_4258_10)">
<path d="M16 0C11.7575 0 7.685 1.68675 4.6875 4.68625C1.68691 7.68694 0.000831175 11.7565 0 16C0 20.2417 1.6875 24.3142 4.6875 27.3137C7.685 30.3132 11.7575 32 16 32C20.2425 32 24.315 30.3132 27.3125 27.3137C30.3125 24.3142 32 20.2417 32 16C32 11.7583 30.3125 7.68575 27.3125 4.68625C24.315 1.68675 20.2425 0 16 0Z" fill="url(#paint0_linear_4258_10)"/>
<path d="M7.2425 15.8311C11.9075 13.7991 15.0175 12.4593 16.5725 11.8121C21.0175 9.96381 21.94 9.64281 22.5425 9.63193C22.675 9.62981 22.97 9.66256 23.1625 9.81818C23.3225 9.94943 23.3675 10.1269 23.39 10.2516C23.41 10.3761 23.4375 10.6598 23.415 10.8813C23.175 13.4113 22.1325 19.5508 21.6025 22.3846C21.38 23.5836 20.9375 23.9856 20.51 24.0248C19.58 24.1103 18.875 23.4108 17.975 22.8211C16.5675 21.8978 15.7725 21.3233 14.405 20.4226C12.825 19.3816 13.85 18.8093 14.75 17.8743C14.985 17.6296 19.08 13.9058 19.1575 13.5681C19.1675 13.5258 19.1775 13.3683 19.0825 13.2853C18.99 13.2021 18.8525 13.2306 18.7525 13.2531C18.61 13.2851 16.3625 14.7721 12.0025 17.7138C11.365 18.1523 10.7875 18.3661 10.2675 18.3548C9.6975 18.3426 8.5975 18.0318 7.78 17.7663C6.78 17.4406 5.9825 17.2683 6.0525 16.7151C6.0875 16.4271 6.485 16.1323 7.2425 15.8311V15.8311Z" fill="white"/>
</g>
<defs>
<linearGradient id="paint0_linear_4258_10" x1="16" y1="0" x2="16" y2="32" gradientUnits="userSpaceOnUse">
<stop stop-color="#2AABEE"/>
<stop offset="1" stop-color="#229ED9"/>
</linearGradient>
<clipPath id="clip0_4258_10">
<rect width="32" height="32" fill="white"/>
</clipPath>
</defs>
</symbol>

<symbol id="viber" width="33" height="33" viewBox="0 0 33 33" fill="none" xmlns="http://www.w3.org/2000/svg">
<path d="M15.3757 0.106757C12.6693 0.119531 6.84847 0.502338 3.57526 3.31336C1.13936 5.573 0.271557 8.93224 0.144477 13.0925C0.0343592 17.2378 -0.117134 25.023 7.77733 27.1962L7.75559 30.4251C7.75559 30.4251 7.69736 31.7168 8.59552 31.9878C9.70187 32.3283 10.3398 31.3386 11.4008 30.2777L13.3803 28.182C18.7887 28.6454 22.9399 27.6893 23.4182 27.5465C24.5185 27.2209 30.7083 26.5126 31.7714 18.7326C32.8625 10.6978 31.3549 5.6205 28.5872 3.3098L28.5704 3.30969C27.7354 2.57005 24.3758 0.213372 16.8351 0.136586C16.8351 0.136586 16.2757 0.0968184 15.3757 0.105757L15.3757 0.106757ZM15.4532 2.36833C16.2214 2.3685 16.6881 2.40265 16.6881 2.40265C23.0708 2.46163 26.105 4.30511 26.8196 4.92394C29.1504 6.84568 30.3273 11.4217 29.3979 18.1296C28.5142 24.6338 23.4954 25.012 22.5651 25.2867C22.1691 25.4041 18.513 26.2335 13.9161 25.9215C13.9161 25.9215 10.4649 29.8204 9.38742 30.8231C9.21657 30.999 9.0181 31.0496 8.89182 31.0228C8.71085 30.9796 8.65749 30.7662 8.66999 30.4743L8.73875 25.1156C2.04319 23.3105 2.48309 16.6723 2.57811 13.2039C2.68367 9.7355 3.3888 6.90218 5.444 4.99398C8.20925 2.65355 13.1516 2.36883 15.4511 2.36832L15.4532 2.36833ZM15.9357 5.83966C15.8805 5.83876 15.8256 5.84824 15.7743 5.86754C15.723 5.88685 15.6762 5.9156 15.6367 5.95215C15.5972 5.9887 15.5657 6.03231 15.544 6.08048C15.5223 6.12865 15.5109 6.18042 15.5104 6.2328C15.5089 6.4568 15.6995 6.63509 15.9303 6.63664C16.9753 6.62482 18.0125 6.80943 18.9822 7.17983C19.9519 7.55023 20.8349 8.09908 21.5802 8.79474C23.1018 10.216 23.8351 12.117 23.8469 14.5961C23.8454 14.8151 24.0307 14.9984 24.2668 15L24.2669 14.984C24.3781 14.985 24.4853 14.9442 24.5649 14.8706C24.6446 14.7969 24.6903 14.6964 24.6921 14.5908C24.7512 13.4243 24.5596 12.2585 24.1291 11.1641C23.6986 10.0698 23.0381 9.06973 22.1879 8.22482C20.5301 6.66662 18.4216 5.8554 15.9357 5.83866L15.9357 5.83966ZM10.3749 6.71923C10.0769 6.67586 9.77232 6.73063 9.51183 6.87442L9.4897 6.87427C8.88494 7.20534 8.33933 7.62526 7.87315 8.11841C7.48567 8.53781 7.27414 8.9634 7.21658 9.37402C7.18226 9.61879 7.20274 9.86394 7.27809 10.0984L7.30538 10.1146C7.73036 11.3255 8.28842 12.4913 8.97234 13.5899C9.85247 15.1329 10.9388 16.5616 12.2043 17.8408L12.2419 17.8931L12.3017 17.9355L12.3393 17.9777L12.3834 18.014C13.719 19.2356 15.2135 20.2905 16.8305 21.153C18.6787 22.1235 19.8011 22.5841 20.4754 22.7766L20.4753 22.7866C20.673 22.8449 20.853 22.8722 21.0343 22.8734C21.6102 22.8372 22.1567 22.6191 22.5866 22.2538C23.1101 21.818 23.555 21.3038 23.9036 20.7317L23.9037 20.7217C24.2311 20.1459 24.1252 19.5981 23.6608 19.225C22.7311 18.4432 21.7248 17.7476 20.6555 17.1477C19.9393 16.7729 19.2076 16.9919 18.9089 17.3649L18.2726 18.1157C17.9466 18.4885 17.3589 18.4325 17.3589 18.4325L17.342 18.4424C12.9643 17.3499 11.8229 13.1291 11.8229 13.1291C11.8229 13.1291 11.772 12.5558 12.1797 12.2665L12.9741 11.6678C13.3544 11.3784 13.6225 10.6882 13.2214 10.0025C12.608 8.97847 11.8902 8.01401 11.0783 7.12297C10.9009 6.91301 10.651 6.76928 10.3728 6.71721L10.3749 6.71923ZM16.6507 7.94952C16.0911 7.94575 16.0857 8.74774 16.6506 8.75154C17.3463 8.76694 18.0321 8.91228 18.6688 9.17927C19.3055 9.44627 19.8806 9.82967 20.3612 10.3076C20.7995 10.7725 21.135 11.3162 21.3479 11.9063C21.5607 12.4964 21.6467 13.121 21.6006 13.743C21.6018 13.8483 21.6464 13.949 21.7249 14.0236C21.8034 14.0981 21.9095 14.1406 22.0205 14.1418L22.0372 14.1629C22.149 14.1629 22.2563 14.1211 22.3359 14.0466C22.4155 13.9721 22.4609 13.8709 22.4625 13.7648C22.5111 12.1761 21.9995 10.8396 20.9856 9.76476C19.9664 8.68987 18.5383 8.08124 16.7108 7.94993L16.6507 7.94952V7.94952ZM17.3285 10.1101C16.7522 10.0903 16.7246 10.9081 17.2956 10.9279C18.6841 11.0053 19.354 11.6758 19.4333 13.0464C19.4345 13.1504 19.4786 13.2498 19.5561 13.3234C19.6336 13.397 19.7384 13.4389 19.848 13.4402L19.8648 13.4403C19.9212 13.4384 19.9766 13.4258 20.0278 13.4034C20.079 13.3809 20.1249 13.349 20.1629 13.3095C20.201 13.27 20.2303 13.2237 20.2493 13.1734C20.2683 13.123 20.2765 13.0695 20.2734 13.016C20.1864 11.2294 19.1668 10.2165 17.3454 10.1113L17.3285 10.1111L17.3285 10.1101Z" fill="#9747FF"/>
</symbol>

<symbol id="vkontakte" width="32" height="32" viewBox="0 0 32 32" fill="none" xmlns="http://www.w3.org/2000/svg">
<path d="M29 0H3C1.35 0 0 1.35 0 3V29C0 30.65 1.35 32 3 32H29C30.65 32 32 30.65 32 29V3C32 1.35 30.65 0 29 0ZM25.918 22.4L22.992 22.444C22.992 22.444 22.36 22.57 21.536 22C20.442 21.25 19.41 19.294 18.604 19.55C17.792 19.806 17.816 21.562 17.816 21.562C17.816 21.562 17.822 21.938 17.634 22.136C17.434 22.354 17.034 22.398 17.034 22.398H15.728C15.728 22.398 12.84 22.574 10.296 19.922C7.52 17.034 5.072 11.304 5.072 11.304C5.072 11.304 4.928 10.928 5.084 10.748C5.258 10.542 5.728 10.53 5.728 10.53L8.86 10.512C8.86 10.512 9.154 10.562 9.366 10.718C9.542 10.844 9.634 11.086 9.634 11.086C9.634 11.086 10.14 12.368 10.81 13.524C12.116 15.78 12.728 16.274 13.172 16.036C13.816 15.686 13.622 12.842 13.622 12.842C13.622 12.842 13.634 11.81 13.298 11.354C13.036 10.998 12.542 10.892 12.33 10.866C12.154 10.84 12.442 10.434 12.818 10.248C13.38 9.972 14.374 9.954 15.55 9.966C16.462 9.972 16.732 10.034 17.088 10.116C18.17 10.378 17.8 11.384 17.8 13.798C17.8 14.574 17.662 15.66 18.218 16.016C18.456 16.172 19.042 16.04 20.512 13.548C21.206 12.366 21.73 10.98 21.73 10.98C21.73 10.98 21.842 10.73 22.018 10.624C22.2 10.518 22.444 10.55 22.444 10.55L25.738 10.532C25.738 10.532 26.726 10.414 26.888 10.864C27.056 11.332 26.52 12.426 25.176 14.22C22.97 17.164 22.72 16.888 24.558 18.588C26.308 20.214 26.67 21.006 26.734 21.106C27.446 22.306 25.922 22.4 25.922 22.4H25.918Z" fill="#699BF7"/>
</symbol>

</svg>