<svg width="32" height="32" viewBox="0 0 32 32" fill="none" xmlns="http://www.w3.org/2000/svg">
<path d="M6.025 0.420078C2.77 2.65258 -0.175004 5.10258 0.214996 8.00258C0.624996 11.1101 4.335 17.9676 9.185 22.8176C14.035 27.6651 20.885 31.3726 24 31.7876C26.9 32.1751 29.3475 29.2301 31.58 25.9751C31.9275 25.5201 31.8975 24.8651 31.4825 24.4501C31.4325 24.4001 31.3775 24.3601 31.325 24.3201V24.3101L24.5275 19.4551H24.52C24.0625 19.1226 23.425 19.1551 23.0125 19.5701C22.97 19.6101 22.9375 19.6576 22.905 19.7001C22.9025 19.7001 22.9025 19.7026 22.9025 19.7026C22.8825 19.7326 22.865 19.7601 22.845 19.7851C22.39 20.4401 22.395 20.5226 22.025 21.0876C21.505 21.9101 20.9 23.1776 20.3025 24.6126C18.395 24.3226 15.5525 22.6651 12.445 19.5551C9.3325 16.4501 7.675 13.6076 7.3825 11.6976C8.8225 11.1001 10.0875 10.4976 10.9075 9.97508C11.475 9.60508 11.5575 9.61008 12.21 9.15508C12.24 9.13758 12.2675 9.11758 12.2925 9.09758C12.34 9.06508 12.385 9.02758 12.425 8.99008C12.6218 8.79427 12.7415 8.53413 12.7621 8.25729C12.7828 7.98045 12.703 7.70543 12.5375 7.48258L12.5425 7.47258L7.69 0.680078L7.6825 0.677578C7.645 0.622578 7.6025 0.567578 7.555 0.520078C7.35533 0.320945 7.09018 0.201048 6.80878 0.182656C6.52739 0.164264 6.24888 0.248628 6.025 0.420078" fill="#FCC21B"/>
<path d="M27.7575 23.7599C28.0425 23.9174 28.41 24.1999 28.535 24.2749C28.7875 24.4274 29.03 24.5649 29.2725 24.7349C29.8125 25.1174 30.0225 25.6224 29.6275 26.1924C29.1025 26.9474 27.74 28.5374 26.6975 28.0349C26.3125 27.8449 26.995 26.0849 27.0625 25.7774C27.1575 25.3524 27.1425 23.4224 27.7575 23.7599V23.7599ZM7.7175 9.57744C7.635 9.39744 7.765 9.08744 7.9475 8.84994C8.1225 8.62494 8.3525 8.40994 8.495 8.16494C8.8175 7.61244 8.3975 5.31494 8.9675 5.31494C9.27 5.31494 9.6225 5.70494 9.79 5.91494C10.0475 6.23494 10.195 6.63494 10.445 6.96744C10.6225 7.20494 10.88 7.45744 10.95 7.75244C11.105 8.40494 10.37 8.67744 9.9175 8.94744C9.365 9.27494 8.7675 9.65994 8.11 9.71994C7.8875 9.74244 7.765 9.68244 7.7175 9.57744V9.57744Z" fill="white"/>
</svg>
